<svg width="10" height="5" viewBox="0 0 10 5" fill="none" xmlns="http://www.w3.org/2000/svg">
<path d="M9.38362 0.1113C9.31057 0.0399465 9.21251 -1.2364e-08 9.11039 -1.68277e-08C9.00827 -2.12913e-08 8.91021 0.0399465 8.83716 0.1113L4.74766 4.09772L0.658987 0.1113C0.585936 0.0399462 0.487871 -3.9373e-07 0.385755 -3.98194e-07C0.283638 -4.02657e-07 0.185573 0.0399461 0.112521 0.111299C0.0768995 0.145982 0.0485878 0.187449 0.0292559 0.233254C0.00992392 0.279058 -3.53003e-05 0.328271 -3.53025e-05 0.377988C-3.53046e-05 0.427704 0.00992391 0.476918 0.0292558 0.522722C0.0485878 0.568526 0.0768995 0.609993 0.112521 0.644676L4.46216 4.88387C4.53854 4.95833 4.64099 5 4.74766 5C4.85433 5 4.95678 4.95833 5.03317 4.88387L9.3828 0.644676C9.41843 0.609994 9.44674 0.568527 9.46607 0.522722C9.4854 0.476918 9.49536 0.427705 9.49536 0.377988C9.49536 0.328271 9.4854 0.279058 9.46607 0.233254C9.44674 0.18745 9.41843 0.145983 9.3828 0.1113L9.38362 0.1113Z" fill="black"/>
</svg>
