<svg width="26" height="26" viewBox="0 0 26 26" fill="none" xmlns="http://www.w3.org/2000/svg">
<path d="M9.75001 23.1111C10.7472 23.1111 11.5556 22.3027 11.5556 21.3056C11.5556 20.3084 10.7472 19.5 9.75001 19.5C8.75283 19.5 7.94446 20.3084 7.94446 21.3056C7.94446 22.3027 8.75283 23.1111 9.75001 23.1111Z" fill="black"/>
<path d="M19.1389 23.1111C20.1361 23.1111 20.9445 22.3027 20.9445 21.3056C20.9445 20.3084 20.1361 19.5 19.1389 19.5C18.1417 19.5 17.3333 20.3084 17.3333 21.3056C17.3333 22.3027 18.1417 23.1111 19.1389 23.1111Z" fill="black"/>
<path d="M23.9056 4.61456C23.8383 4.52716 23.7519 4.45633 23.653 4.4075C23.5541 4.35868 23.4453 4.33316 23.335 4.33289H6.65167L6.32667 3.30011C6.29096 3.18922 6.22897 3.08861 6.14597 3.00687C6.06297 2.92512 5.96142 2.86467 5.85 2.83067L2.88889 1.92067C2.79784 1.89269 2.70217 1.88292 2.60734 1.89191C2.51252 1.90091 2.42039 1.92849 2.33622 1.97309C2.16624 2.06316 2.039 2.21706 1.9825 2.40095C1.92599 2.58483 1.94485 2.78363 2.03492 2.95361C2.12499 3.12359 2.27889 3.25083 2.46278 3.30734L5.05555 4.10178L8.36333 14.5523L7.18611 15.5201L7.09222 15.614C6.80109 15.9511 6.63615 16.3789 6.62561 16.8242C6.61507 17.2695 6.75959 17.7046 7.03444 18.0551C7.23129 18.2945 7.48143 18.4845 7.76485 18.6099C8.04828 18.7353 8.35712 18.7927 8.66667 18.7773H20.7206C20.9121 18.7773 21.0958 18.7012 21.2312 18.5658C21.3667 18.4304 21.4428 18.2467 21.4428 18.0551C21.4428 17.8636 21.3667 17.6799 21.2312 17.5444C21.0958 17.409 20.9121 17.3329 20.7206 17.3329H8.55111C8.46794 17.3301 8.38691 17.3058 8.31585 17.2625C8.24479 17.2192 8.18609 17.1583 8.14543 17.0857C8.10477 17.0131 8.08353 16.9312 8.08374 16.848C8.08396 16.7648 8.10563 16.6831 8.14667 16.6107L9.88722 15.1662H21.0311C21.1961 15.171 21.3577 15.1192 21.4891 15.0193C21.6206 14.9194 21.7138 14.7776 21.7533 14.6173L24.0644 5.22845C24.0864 5.12078 24.0835 5.00951 24.056 4.90313C24.0284 4.79675 23.977 4.69805 23.9056 4.61456Z" fill="black"/>
</svg>
