<svg width="35" height="35" viewBox="0 0 35 35" fill="none" xmlns="http://www.w3.org/2000/svg">
<circle cx="17.5292" cy="17.4124" r="16.5853" stroke="white" stroke-width="1.65421"/>
<g clip-path="url(#clip0_295_2668)">
<path d="M17.8194 9.67969C15.5713 9.67969 15.2911 9.69054 14.4113 9.72776C13.5278 9.77119 12.9302 9.90817 12.4029 10.1129C11.8511 10.3212 11.3513 10.6474 10.9385 11.0687C10.516 11.4806 10.1896 11.9807 9.98263 12.5332C9.77793 13.0605 9.64094 13.6581 9.59751 14.5415C9.55771 15.4219 9.54944 15.7015 9.54944 17.9497C9.54944 20.1979 9.56029 20.478 9.59751 21.3579C9.64094 22.2387 9.77793 22.8389 9.98263 23.3662C10.191 23.918 10.5172 24.4178 10.9385 24.8307C11.3504 25.2531 11.8504 25.5795 12.4029 25.7865C12.9302 25.9886 13.5304 26.1282 14.4113 26.1716C15.2916 26.2114 15.5713 26.2197 17.8194 26.2197C20.0676 26.2197 20.3478 26.2088 21.2276 26.1716C22.1085 26.1282 22.7087 25.9881 23.2359 25.7865C23.7878 25.5782 24.2876 25.252 24.7004 24.8307C25.1234 24.4192 25.4499 23.919 25.6562 23.3662C25.8584 22.8389 25.9979 22.2387 26.0414 21.3579C26.0812 20.4775 26.0894 20.1979 26.0894 17.9497C26.0894 15.7015 26.0786 15.4213 26.0414 14.5415C25.9979 13.6606 25.8579 13.0574 25.6562 12.5332C25.4479 11.9813 25.1217 11.4816 24.7004 11.0687C24.289 10.6457 23.7888 10.3192 23.2359 10.1129C22.7087 9.90817 22.1085 9.77119 21.2276 9.72776C20.3473 9.68796 20.0676 9.67969 17.8194 9.67969ZM17.8194 11.1685C20.0273 11.1685 20.2909 11.1793 21.1635 11.2165C21.9684 11.2543 22.4068 11.3887 22.6978 11.5024C23.0576 11.6352 23.3833 11.8466 23.651 12.1212C23.9251 12.3878 24.1357 12.7128 24.2672 13.0718C24.381 13.3629 24.5154 13.8012 24.5531 14.6061C24.5903 15.4787 24.6012 15.7429 24.6012 17.9502C24.6012 20.1575 24.5903 20.4217 24.55 21.2943C24.5066 22.0992 24.3722 22.5375 24.259 22.8286C24.1023 23.2168 23.9276 23.4882 23.6391 23.7818C23.3705 24.0547 23.045 24.265 22.6859 24.398C22.3985 24.5117 21.9539 24.6461 21.1459 24.6839C20.2687 24.7211 20.0102 24.7319 17.7967 24.7319C15.5832 24.7319 15.3252 24.7211 14.4469 24.6808C13.6421 24.6373 13.198 24.5029 12.907 24.3897C12.5141 24.2331 12.2448 24.0584 11.9563 23.7699C11.6653 23.4789 11.4802 23.2018 11.3375 22.8167C11.2217 22.5293 11.0894 22.0847 11.0465 21.2767C11.017 20.4098 11.0031 20.141 11.0031 17.9378C11.0031 15.7356 11.017 15.4663 11.0465 14.5885C11.0894 13.7806 11.2217 13.337 11.3375 13.0486C11.4802 12.6552 11.6658 12.3864 11.9563 12.0953C12.2442 11.8074 12.5141 11.6213 12.907 11.4755C13.198 11.3623 13.6312 11.2279 14.4392 11.1876C15.3164 11.1561 15.5749 11.1447 17.7853 11.1447L17.8194 11.1685ZM17.8194 13.7051C17.2618 13.7049 16.7097 13.8146 16.1945 14.0279C15.6793 14.2412 15.2112 14.5539 14.8169 14.9482C14.4226 15.3424 14.1099 15.8106 13.8966 16.3258C13.6833 16.8409 13.5736 17.3931 13.5738 17.9507C13.5736 18.5083 13.6833 19.0605 13.8966 19.5757C14.1099 20.0909 14.4226 20.559 14.8169 20.9533C15.2112 21.3476 15.6793 21.6603 16.1945 21.8736C16.7097 22.0869 17.2618 22.1966 17.8194 22.1963C18.377 22.1966 18.9292 22.0869 19.4444 21.8736C19.9596 21.6603 20.4277 21.3476 20.822 20.9533C21.2163 20.559 21.529 20.0909 21.7423 19.5757C21.9556 19.0605 22.0653 18.5083 22.0651 17.9507C22.0653 17.3931 21.9556 16.8409 21.7423 16.3258C21.529 15.8106 21.2163 15.3424 20.822 14.9482C20.4277 14.5539 19.9596 14.2412 19.4444 14.0279C18.9292 13.8146 18.377 13.7049 17.8194 13.7051ZM17.8194 20.7076C16.2955 20.7076 15.0626 19.4747 15.0626 17.9507C15.0626 16.4268 16.2955 15.1939 17.8194 15.1939C19.3434 15.1939 20.5763 16.4268 20.5763 17.9507C20.5763 19.4747 19.3434 20.7076 17.8194 20.7076ZM23.2287 13.5355C23.2284 13.799 23.1236 14.0516 22.9372 14.2378C22.7508 14.424 22.4981 14.5286 22.2346 14.5286C22.1043 14.5286 21.9754 14.5029 21.855 14.4531C21.7346 14.4032 21.6253 14.3301 21.5332 14.238C21.4411 14.1459 21.368 14.0366 21.3181 13.9162C21.2683 13.7958 21.2426 13.6668 21.2426 13.5366C21.2426 13.4063 21.2683 13.2773 21.3181 13.1569C21.368 13.0366 21.4411 12.9272 21.5332 12.8351C21.6253 12.743 21.7346 12.6699 21.855 12.6201C21.9754 12.5702 22.1043 12.5446 22.2346 12.5446C22.781 12.5446 23.2287 12.9891 23.2287 13.5355Z" fill="white"/>
</g>
<defs>
<clipPath id="clip0_295_2668">
<rect width="16.5421" height="16.5421" fill="white" transform="translate(9.54834 9.67969)"/>
</clipPath>
</defs>
</svg>
