<svg width="35" height="35" viewBox="0 0 35 35" fill="none" xmlns="http://www.w3.org/2000/svg">
<circle cx="17.5877" cy="17.4124" r="16.5853" stroke="white" stroke-width="1.65421"/>
<path fill-rule="evenodd" clip-rule="evenodd" d="M16.5087 13.9986H19.3246V15.4012C19.7302 14.5945 20.7704 13.8697 22.3331 13.8697C25.3286 13.8697 26.0398 15.4755 26.0398 18.4218V23.8784H23.0071V19.0928C23.0071 17.4149 22.6014 16.4687 21.5688 16.4687C20.1366 16.4687 19.5414 17.4885 19.5414 19.092V23.8784H16.5087V13.9986ZM11.3084 23.7495H14.3411V13.8697H11.3084V23.7495ZM14.7755 10.6482C14.7756 10.9024 14.7252 11.1541 14.6272 11.3886C14.5292 11.6232 14.3856 11.8359 14.2046 12.0144C13.838 12.3788 13.3417 12.5828 12.8247 12.5816C12.3087 12.5812 11.8136 12.3778 11.4464 12.0152C11.2661 11.836 11.1229 11.6231 11.0251 11.3885C10.9272 11.1539 10.8767 10.9024 10.8762 10.6482C10.8762 10.1349 11.0809 9.64361 11.4471 9.2812C11.814 8.91816 12.3094 8.71462 12.8255 8.71484C13.3426 8.71484 13.8384 8.91879 14.2046 9.2812C14.5701 9.64361 14.7755 10.1349 14.7755 10.6482Z" fill="white"/>
</svg>
