<svg width="35" height="35" viewBox="0 0 35 35" fill="none" xmlns="http://www.w3.org/2000/svg">
<circle cx="17.4124" cy="17.4124" r="16.5853" stroke="white" stroke-width="1.65421"/>
<path d="M25.4334 12.9551C24.8402 13.211 24.1947 13.3951 23.5298 13.4669C24.2201 13.0567 24.7371 12.4088 24.9837 11.6446C24.3359 12.03 23.6263 12.3002 22.8862 12.4433C22.5769 12.1126 22.2028 11.8492 21.7873 11.6695C21.3717 11.4897 20.9236 11.3974 20.4708 11.3984C18.6389 11.3984 17.1656 12.8834 17.1656 14.7056C17.1656 14.9615 17.1966 15.2173 17.247 15.4635C14.504 15.3201 12.0576 14.0096 10.4312 12.0033C10.1348 12.5094 9.97955 13.0858 9.98146 13.6723C9.98146 14.8199 10.565 15.8319 11.4547 16.427C10.9304 16.4063 10.4183 16.2622 9.96014 16.0063V16.047C9.96014 17.6541 11.0961 18.9858 12.6101 19.2921C12.3258 19.366 12.0334 19.4037 11.7397 19.4045C11.5245 19.4045 11.321 19.3832 11.1155 19.3541C11.5342 20.6646 12.7536 21.6164 14.2055 21.6474C13.0695 22.5372 11.6467 23.0606 10.1017 23.0606C9.82444 23.0606 9.56856 23.0509 9.30298 23.0199C10.7685 23.9601 12.5074 24.5029 14.38 24.5029C20.4592 24.5029 23.7857 19.4666 23.7857 15.0952C23.7857 14.9518 23.7857 14.8083 23.776 14.6649C24.4196 14.1938 24.9837 13.6103 25.4334 12.9551Z" fill="white"/>
</svg>
